<svg xmlns="http://www.w3.org/2000/svg" width="805" height="600"><rect width="805" height="600" x="0" y="0" fill="#4a4a4a" id="backgorund"/><g id="viz"><clipPath id="serieClipPath"><rect x="-50" y="-10" width="805" height="600"/></clipPath><g transform="translate(0,0)"><g transform="translate(50,10)" clip-path="url(#serieClipPath)"><g id="axis"><g transform="translate(0,570)" fill="none" font-size="10" font-family="sans-serif" text-anchor="middle"><path class="domain" stroke="currentColor" d="M0,6V0H740V6"/><g class="tick" opacity="1" transform="translate(0,0)"><line stroke="currentColor" y2="6"/><text fill="currentColor" y="9" dy="0.71em">Nov 29</text></g><g class="tick" opacity="1" transform="translate(41.11111111111111,0)"><line stroke="currentColor" y2="6"/><text fill="currentColor" y="9" dy="0.71em">Dec 06</text></g><g class="tick" opacity="1" transform="translate(82.22222222222221,0)"><line stroke="currentColor" y2="6"/><text fill="currentColor" y="9" dy="0.71em">Dec 13</text></g><g class="tick" opacity="1" transform="translate(123.33333333333333,0)"><line stroke="currentColor" y2="6"/><text fill="currentColor" y="9" dy="0.71em">Dec 20</text></g><g class="tick" opacity="1" transform="translate(164.44444444444443,0)"><line stroke="currentColor" y2="6"/><text fill="currentColor" y="9" dy="0.71em">Dec 27</text></g><g class="tick" opacity="1" transform="translate(205.55555555555557,0)"><line stroke="currentColor" y2="6"/><text fill="currentColor" y="9" dy="0.71em">Jan 03</text></g><g class="tick" opacity="1" transform="translate(246.66666666666666,0)"><line stroke="currentColor" y2="6"/><text fill="currentColor" y="9" dy="0.71em">Jan 10</text></g><g class="tick" opacity="1" transform="translate(287.77777777777777,0)"><line stroke="currentColor" y2="6"/><text fill="currentColor" y="9" dy="0.71em">Jan 17</text></g><g class="tick" opacity="1" transform="translate(328.88888888888886,0)"><line stroke="currentColor" y2="6"/><text fill="currentColor" y="9" dy="0.71em">Jan 24</text></g><g class="tick" opacity="1" transform="translate(370,0)"><line stroke="currentColor" y2="6"/><text fill="currentColor" y="9" dy="0.71em">Jan 31</text></g><g class="tick" opacity="1" transform="translate(411.11111111111114,0)"><line stroke="currentColor" y2="6"/><text fill="currentColor" y="9" dy="0.71em">Feb 07</text></g><g class="tick" opacity="1" transform="translate(452.2222222222223,0)"><line stroke="currentColor" y2="6"/><text fill="currentColor" y="9" dy="0.71em">Feb 14</text></g><g class="tick" opacity="1" transform="translate(493.3333333333333,0)"><line stroke="currentColor" y2="6"/><text fill="currentColor" y="9" dy="0.71em">Feb 21</text></g><g class="tick" opacity="1" transform="translate(534.4444444444445,0)"><line stroke="currentColor" y2="6"/><text fill="currentColor" y="9" dy="0.71em">Feb 28</text></g><g class="tick" opacity="1" transform="translate(575.5555555555555,0)"><line stroke="currentColor" y2="6"/><text fill="currentColor" y="9" dy="0.71em">Mar 06</text></g><g class="tick" opacity="1" transform="translate(616.6666666666667,0)"><line stroke="currentColor" y2="6"/><text fill="currentColor" y="9" dy="0.71em">Mar 13</text></g><g class="tick" opacity="1" transform="translate(657.7777777777777,0)"><line stroke="currentColor" y2="6"/><text fill="currentColor" y="9" dy="0.71em">Mar 20</text></g><g class="tick" opacity="1" transform="translate(698.8888888888889,0)"><line stroke="currentColor" y2="6"/><text fill="currentColor" y="9" dy="0.71em">Mar 27</text></g><g class="tick" opacity="1" transform="translate(740,0)"><line stroke="currentColor" y2="6"/><text fill="currentColor" y="9" dy="0.71em">Apr 03</text></g><text x="740" dy="-5" text-anchor="end" style="font-family: Arial, sans-serif; font-size: 12px; fill: rgb(123, 123, 123); font-weight: bold;">日期</text></g><g transform="translate(0,0)" fill="none" font-size="10" font-family="sans-serif" text-anchor="end"><path class="domain" stroke="currentColor" d="M0,570V0"/><g class="tick" opacity="1" transform="translate(0,570)"><line stroke="currentColor" x2="-6"/><text fill="currentColor" x="-9" dy="0.32em">98</text></g><g class="tick" opacity="1" transform="translate(0,498.75)"><line stroke="currentColor" x2="-6"/><text fill="currentColor" x="-9" dy="0.32em">99</text></g><g class="tick" opacity="1" transform="translate(0,427.5)"><line stroke="currentColor" x2="-6"/><text fill="currentColor" x="-9" dy="0.32em">100</text></g><g class="tick" opacity="1" transform="translate(0,356.25)"><line stroke="currentColor" x2="-6"/><text fill="currentColor" x="-9" dy="0.32em">101</text></g><g class="tick" opacity="1" transform="translate(0,285)"><line stroke="currentColor" x2="-6"/><text fill="currentColor" x="-9" dy="0.32em">102</text></g><g class="tick" opacity="1" transform="translate(0,213.75)"><line stroke="currentColor" x2="-6"/><text fill="currentColor" x="-9" dy="0.32em">103</text></g><g class="tick" opacity="1" transform="translate(0,142.5)"><line stroke="currentColor" x2="-6"/><text fill="currentColor" x="-9" dy="0.32em">104</text></g><g class="tick" opacity="1" transform="translate(0,71.25)"><line stroke="currentColor" x2="-6"/><text fill="currentColor" x="-9" dy="0.32em">105</text></g><g class="tick" opacity="1" transform="translate(0,0)"><line stroke="currentColor" x2="-6"/><text fill="currentColor" x="-9" dy="0.32em">106</text></g><text x="4" text-anchor="start" dominant-baseline="hanging" style="font-family: Arial, sans-serif; font-size: 12px; fill: rgb(123, 123, 123); font-weight: bold;">收盤價</text></g></g><g id="viz"><g><path d="M11.746031746031745,213.75C14.68253968253968,213.75,14.68253968253968,35.625,17.619047619047617,35.625C26.428571428571423,35.625,26.428571428571423,35.625,35.238095238095234,35.625C38.17460317460317,35.625,38.17460317460317,213.75,41.11111111111111,213.75C44.047619047619044,213.75,44.047619047619044,285,46.98412698412698,285C49.92063492063492,285,49.92063492063492,320.625,52.857142857142854,320.625C55.79365079365079,320.625,55.79365079365079,285,58.73015873015873,285C67.53968253968253,285,67.53968253968253,285,76.34920634920634,285C79.28571428571428,285,79.28571428571428,356.25,82.22222222222221,356.25C85.15873015873015,356.25,85.15873015873015,249.375,88.09523809523809,249.375C91.03174603174602,249.375,91.03174603174602,320.625,93.96825396825396,320.625C96.9047619047619,320.625,96.9047619047619,391.875,99.84126984126983,391.875C108.65079365079364,391.875,108.65079365079364,320.625,117.46031746031746,320.625C120.39682539682539,320.625,120.39682539682539,427.5,123.33333333333333,427.5C126.26984126984127,427.5,126.26984126984127,427.5,129.2063492063492,427.5C132.1428571428571,427.5,132.1428571428571,356.25,135.07936507936506,356.25C138.015873015873,356.25,138.015873015873,356.25,140.95238095238093,356.25C149.76190476190476,356.25,149.76190476190476,356.25,158.57142857142856,356.25C161.5079365079365,356.25,161.5079365079365,391.875,164.44444444444443,391.875C167.38095238095235,391.875,167.38095238095235,391.875,170.3174603174603,391.875C173.25396825396825,391.875,173.25396825396825,448.8749999999998,176.19047619047618,448.8749999999998C179.1269841269841,448.8749999999998,179.1269841269841,434.6249999999996,182.06349206349205,434.6249999999996C193.8095238095238,434.6249999999996,193.8095238095238,491.6250000000004,205.55555555555557,491.6250000000004C208.4920634920635,491.6250000000004,208.4920634920635,562.8750000000005,211.42857142857142,562.8750000000005C214.36507936507937,562.8750000000005,214.36507936507937,570,217.30158730158732,570C220.23809523809524,570,220.23809523809524,541.4999999999995,223.17460317460316,541.4999999999995C231.984126984127,541.4999999999995,231.984126984127,491.6250000000004,240.7936507936508,491.6250000000004C243.73015873015873,491.6250000000004,243.73015873015873,470.2499999999996,246.66666666666666,470.2499999999996C249.6031746031746,470.2499999999996,249.6031746031746,491.6250000000004,252.53968253968256,491.6250000000004C255.47619047619048,491.6250000000004,255.47619047619048,527.2500000000005,258.4126984126984,527.2500000000005C261.3492063492063,527.2500000000005,261.3492063492063,527.2500000000005,264.2857142857143,527.2500000000005C273.0952380952381,527.2500000000005,273.0952380952381,562.8750000000005,281.90476190476187,562.8750000000005C284.8412698412698,562.8750000000005,284.8412698412698,562.8750000000005,287.77777777777777,562.8750000000005C325.95238095238096,562.8750000000005,325.95238095238096,562.8750000000005,364.1269841269841,562.8750000000005C367.06349206349205,562.8750000000005,367.06349206349205,448.8749999999998,370,448.8749999999998C372.93650793650795,448.8749999999998,372.93650793650795,427.5,375.87301587301585,427.5C378.80952380952385,427.5,378.80952380952385,427.5,381.7460317460318,427.5C384.68253968253975,427.5,384.68253968253975,456.0000000000004,387.61904761904765,456.0000000000004C396.42857142857144,456.0000000000004,396.42857142857144,320.625,405.2380952380953,320.625C408.17460317460325,320.625,408.17460317460325,391.875,411.11111111111114,391.875C414.04761904761904,391.875,414.04761904761904,391.875,416.984126984127,391.875C419.92063492063494,391.875,419.92063492063494,356.25,422.85714285714283,356.25C425.79365079365084,356.25,425.79365079365084,320.625,428.7301587301588,320.625C437.53968253968253,320.625,437.53968253968253,356.25,446.3492063492063,356.25C449.28571428571433,356.25,449.28571428571433,285,452.2222222222223,285C455.15873015873024,285,455.15873015873024,249.375,458.09523809523813,249.375C461.031746031746,249.375,461.031746031746,178.125,463.968253968254,178.125C466.9047619047619,178.125,466.9047619047619,178.125,469.8412698412698,178.125C478.6507936507936,178.125,478.6507936507936,213.75,487.46031746031747,213.75C490.3968253968254,213.75,490.3968253968254,249.375,493.3333333333333,249.375C496.26984126984127,249.375,496.26984126984127,285,499.2063492063492,285C502.14285714285717,285,502.14285714285717,213.75,505.0793650793651,213.75C508.015873015873,213.75,508.015873015873,356.25,510.95238095238096,356.25C531.5079365079365,356.25,531.5079365079365,249.375,552.063492063492,249.375C555,249.375,555,249.375,557.936507936508,249.375C566.7460317460318,249.375,566.7460317460318,178.125,575.5555555555555,178.125C578.4920634920635,178.125,578.4920634920635,71.25,581.4285714285714,71.25C584.3650793650793,71.25,584.3650793650793,142.5,587.3015873015872,142.5C590.2380952380952,142.5,590.2380952380952,249.375,593.1746031746032,249.375C596.1111111111111,249.375,596.1111111111111,285,599.047619047619,285C607.8571428571429,285,607.8571428571429,213.75,616.6666666666667,213.75C619.6031746031747,213.75,619.6031746031747,285,622.5396825396825,285C625.4761904761905,285,625.4761904761905,249.375,628.4126984126984,249.375C631.3492063492063,249.375,631.3492063492063,285,634.2857142857142,285C637.2222222222222,285,637.2222222222222,178.125,640.1587301587302,178.125C648.968253968254,178.125,648.968253968254,249.375,657.7777777777777,249.375C660.7142857142858,249.375,660.7142857142858,178.125,663.6507936507937,178.125C666.5873015873017,178.125,666.5873015873017,178.125,669.5238095238095,178.125C672.4603174603175,178.125,672.4603174603175,178.125,675.3968253968254,178.125C678.3333333333333,178.125,678.3333333333333,35.625,681.2698412698412,35.625C690.0793650793651,35.625,690.0793650793651,178.125,698.8888888888889,178.125C701.8253968253969,178.125,701.8253968253969,213.75,704.7619047619047,213.75C707.6984126984127,213.75,707.6984126984127,178.125,710.6349206349206,178.125" stroke="#ffffff" fill="none"/><text font-family="sans-serif" font-size="10" class="labels" x="17.619047619047617" y="35.625" dx="0" dy="-4" text-anchor="middle"/></g></g></g><text y="4" x="4" style="font-family: Arial, sans-serif; font-size: 12px; fill: black; font-weight: bold; dominant-baseline: hanging;"/></g><g id="grid"><rect x="0" y="0" width="805" height="600" fill="none" stroke="#ccc"/></g></g></svg>